<svg xmlns="http://www.w3.org/2000/svg" width="300" height="300" viewBox="0 0 300 300">
  <rect width="300" height="300" fill="#f5e6c8"/>
  <g fill="#2b2118">
    <rect x="20" y="20" width="80" height="80"/><rect x="200" y="20" width="80" height="80"/><rect x="20" y="200" width="80" height="80"/>
    <rect x="35" y="35" width="50" height="50" fill="#f5e6c8"/><rect x="215" y="35" width="50" height="50" fill="#f5e6c8"/><rect x="35" y="215" width="50" height="50" fill="#f5e6c8"/>
    <rect x="50" y="50" width="20" height="20"/><rect x="230" y="50" width="20" height="20"/><rect x="50" y="230" width="20" height="20"/>
    <rect x="130" y="30" width="15" height="15"/><rect x="160" y="60" width="15" height="15"/><rect x="130" y="90" width="15" height="15"/>
    <rect x="40" y="130" width="15" height="15"/><rect x="90" y="150" width="15" height="15"/><rect x="150" y="130" width="15" height="15"/>
    <rect x="200" y="150" width="15" height="15"/><rect x="250" y="130" width="15" height="15"/><rect x="130" y="200" width="15" height="15"/>
    <rect x="170" y="230" width="15" height="15"/><rect x="210" y="210" width="15" height="15"/><rect x="250" y="250" width="15" height="15"/>
    <rect x="120" y="160" width="15" height="15"/><rect x="240" y="180" width="15" height="15"/><rect x="60" y="170" width="15" height="15"/>
  </g>
  <text x="150" y="160" font-size="18" fill="#8c2f39" text-anchor="middle" font-family="KaiTi,serif">二维码占位</text>
</svg>
